<?xml version="1.0" encoding="iso-8859-1"?>
<!-- Generator: Adobe Illustrator 16.0.0, SVG Export Plug-In . SVG Version: 6.00 Build 0)  -->
<!DOCTYPE svg PUBLIC "-//W3C//DTD SVG 1.1//EN" "http://www.w3.org/Graphics/SVG/1.1/DTD/svg11.dtd">
<svg version="1.1" id="Capa_1" xmlns="http://www.w3.org/2000/svg" xmlns:xlink="http://www.w3.org/1999/xlink" x="0px" y="0px"
	 width="352.896px" height="352.895px" viewBox="0 0 352.896 352.895" style="enable-background:new 0 0 352.896 352.895;"
	 xml:space="preserve">
<g>
	<g>
		<path d="M222.54,199.704c25.703-17.748,47.735-44.676,74.664-58.752c12.239-6.12,25.092-8.568,36.107,0
			c2.448,1.224,0,4.896-1.836,3.672c-2.448-1.836-4.896-2.448-7.344-3.06c5.508,4.896,10.403,10.404,13.464,16.524
			c6.731-6.12,12.24-13.464,15.3-22.032c-4.896-14.076-6.12-28.764-12.24-42.228c-5.508-11.628-12.239-23.256-19.584-33.66
			c-36.107-13.464-88.739,27.54-116.279,46.512c-29.988,20.196-58.14,42.84-88.74,61.812c-14.688,9.181-77.724,49.572-104.04,37.332
			c6.12,12.24,15.3,24.479,21.42,34.884c7.956,13.464,16.524,26.316,25.092,39.78c0.612,1.224,0.612,2.448,0.612,3.06
			C115.439,258.456,170.52,235.2,222.54,199.704z M243.96,111.576c3.672,1.224,6.731,2.448,10.403,4.284
			c1.225-3.672,3.061-7.344,4.896-9.792c2.448-3.06,5.508-4.896,9.792-3.672c3.672,1.224,6.731,4.284,6.12,7.956
			c-0.612,7.344,0,18.972-5.508,25.092c-1.225,1.224-3.061,1.836-4.284,1.836c-3.061,1.224-6.12,1.224-9.181-1.224
			c-1.836-1.836-4.283-3.06-6.119-4.896c-3.673-2.448-7.345-4.896-11.017-6.732C232.332,120.144,236.615,109.127,243.96,111.576z
			 M206.016,129.324c3.06-1.836,4.896-3.672,6.732-6.12c2.447-2.448,6.119,0.612,4.896,3.672c-1.224,2.448-3.672,4.896-6.12,6.12
			c1.836,3.06,3.672,6.12,5.508,9.18c2.448-2.448,4.896-4.896,7.956-6.732c3.061-1.836,5.509,2.448,3.672,4.284
			c-2.447,2.448-5.508,4.284-7.955,6.12c1.836,2.448,3.672,4.896,6.119,6.732c2.448-3.06,4.896-5.508,8.568-6.12
			c3.06-0.612,5.508,2.448,4.284,5.508c-1.836,3.672-5.508,5.508-7.956,9.18c-1.836,2.448-5.508,3.06-7.344,0
			c-3.061-4.896-6.732-9.18-9.792-13.464c-3.061-4.284-5.509-9.18-7.956-14.076C204.792,132.384,204.18,130.548,206.016,129.324z
			 M182.147,147.684c4.896,5.508,11.017,9.792,17.136,14.076c-0.611-1.836-1.224-3.672-2.447-6.12
			c-1.836-5.508-5.509-11.628-6.12-17.136c-0.612-3.06,3.06-6.12,5.508-3.06c4.284,4.896,6.12,11.016,8.568,16.524
			c2.447,6.12,4.896,12.852,7.344,18.972c1.224,3.672-3.061,7.344-6.12,4.896c-9.792-6.732-18.972-14.688-26.928-24.48
			C175.416,148.908,179.088,145.236,182.147,147.684z M163.176,162.984c1.224-0.612,1.836-0.612,3.061,0
			c0.611-1.224,1.224-1.836,2.447-1.836c10.404-0.612,19.584,9.792,23.868,18.359c4.896,8.568-0.612,18.973-11.016,17.137
			c-10.404-1.836-17.137-13.464-18.973-22.645C161.34,171.552,160.116,164.82,163.176,162.984z M142.368,175.835
			c4.896,9.792,11.016,20.196,17.748,28.765c3.06-3.673,7.344-7.345,12.239-6.732c1.836,0,3.061,1.836,2.448,3.672
			c-2.448,4.896-7.956,7.344-11.628,11.628c-1.224,1.836-4.896,1.225-5.508-0.611c-7.344-11.629-14.688-22.032-19.584-34.884
			C136.86,174.612,141.144,173.388,142.368,175.835z M98.916,212.555c2.448-4.283,7.956-6.119,12.24-3.672c0-0.611,0-1.836,0-2.447
			c0.611-5.509,4.283-9.792,9.792-9.792c4.896,0,10.403,4.283,9.792,9.792c-0.612,5.508-1.225,11.016-2.448,16.523
			c-1.225,7.956-7.344,11.628-14.688,8.568c-4.283-1.836-7.956-3.672-12.239-5.508C98.304,222.959,97.08,216.228,98.916,212.555z"/>
		<path d="M331.476,221.736c-9.18,2.448-17.136,6.12-26.316,11.016c-6.119,3.672-12.852,7.956-20.195,7.956
			c-6.12,0-11.628-3.672-12.853-9.18c-1.224-0.612-1.836-1.225-1.836-2.448s0.612-2.448,0.612-4.284c0,0-0.612-0.611-0.612-1.224
			l-0.611,0.612c-18.36,11.628-34.272,25.092-47.736,41.615c-8.568,11.017-34.884,39.78-35.496,56.305l0.612-0.612
			c0.611,0,0.611,0,1.224-0.612c1.224-0.611,2.448,0,3.06,0.612c7.345-2.448,14.076-5.508,20.809-9.792
			c6.731-4.284,12.24-10.404,18.972-15.3c0.612-0.612,1.225,0,1.225,0c1.224-0.612,3.672,0.611,4.283,2.448
			c0.612,9.791-0.611,18.972,1.225,28.764c1.224,6.731,3.06,12.852,4.896,19.584c6.12-18.973,16.524-34.884,30.601-48.96
			c7.956-8.568,17.136-15.912,26.928-22.645C310.056,270.083,365.748,239.484,331.476,221.736z"/>
		<path d="M327.804,151.968c-3.061-4.284-6.12-7.956-9.792-11.016c-2.448,0.612-5.508,1.224-7.956,1.836
			c2.448,4.284,4.896,7.956,7.344,11.628c3.061,4.284,6.732,7.344,9.18,12.24c2.448-1.836,4.896-3.672,6.732-5.508
			C331.476,158.088,329.64,155.028,327.804,151.968z"/>
		<path d="M290.472,188.688c-4.896-7.956-9.792-15.912-14.076-23.868c-2.448,1.836-4.284,3.672-6.731,5.508
			c1.836,4.896,4.283,9.792,7.344,14.688c2.448,4.283,6.12,8.567,8.567,12.852c3.061-3.06,6.12-6.12,9.181-8.568
			c4.284-3.672,8.567-6.731,13.464-9.792c-6.732-5.508-12.24-14.688-15.912-22.032c-1.224-2.448,2.448-4.896,3.672-2.448
			c2.448,4.284,5.508,8.568,8.568,12.24c2.447,3.06,5.508,6.12,7.344,9.18c3.672-2.448,6.732-4.896,10.404-7.344
			c-3.672-3.06-6.12-6.732-8.568-10.404c-3.06-4.284-5.508-9.18-7.956-14.076c-8.568,3.672-17.748,10.404-26.316,17.136
			c4.896,7.956,10.404,15.913,15.301,24.48c0.611,1.224,0.611,1.836-0.612,2.448C293.531,189.912,291.695,189.912,290.472,188.688z"
			/>
		<path d="M255.588,183.18c1.224-0.612,1.836,0,3.06,0.611c7.344,7.344,12.24,18.973,16.524,29.988
			c1.836-4.896,4.896-8.568,7.956-12.24h-0.612c-7.956-6.12-12.852-17.748-15.912-27.54
			C262.319,177.059,259.26,180.12,255.588,183.18z"/>
		<path d="M168.072,174.612c0.611,2.447,1.836,4.896,3.672,6.731c2.447,3.673,8.567,11.017,13.464,7.956
			c4.896-3.06-3.672-12.852-6.12-15.3c-3.06-3.672-6.732-5.508-11.016-6.732c-0.612,0-1.225,0-1.225-0.612h-0.611
			c0,1.836,0,3.06,0.611,4.896C166.848,172.164,167.46,173.388,168.072,174.612z"/>
		<path d="M150.936,78.528c4.284,6.12,9.181,11.628,12.853,18.36c3.672-1.836,6.731-3.672,10.403-5.508l-0.611-0.612
			c-8.568-8.568-13.464-21.42-18.36-33.048c-1.836-4.284-3.672-9.18-4.896-14.076c-3.061,4.896-7.345,9.792-11.628,14.688
			C142.368,65.676,146.652,72.408,150.936,78.528z"/>
		<path d="M158.28,99.948c-9.792-10.404-17.137-25.092-23.257-37.332c-3.672,3.06-6.731,6.12-9.792,9.18
			c8.568,10.404,18.36,21.42,24.48,33.66C152.771,103.62,155.22,101.784,158.28,99.948z"/>
		<path d="M16.296,85.872c-1.224,0.612-1.836,0.612-3.06,0.612c3.672,3.672,7.344,7.344,11.016,10.404
			c6.731,6.12,15.3,13.464,18.972,21.42c0,0.612,0,1.224,0,1.224c22.032-15.3,119.34-77.724,97.309-102.816l0,0
			c-52.021,1.836-79.561,44.676-122.4,66.708C17.52,84.648,16.908,85.26,16.296,85.872z"/>
		<path d="M144.815,108.516c-3.672-4.896-6.119-10.404-9.18-15.3c-4.284-6.732-8.568-12.852-12.852-18.972l0,0
			c-2.448,2.448-5.509,4.896-7.956,6.732c3.06,6.12,6.731,11.628,10.403,17.136c3.673,5.508,9.181,10.404,12.853,15.912
			C139.308,112.8,141.756,110.964,144.815,108.516z"/>
		<path d="M120.336,129.324c3.672-3.672,7.344-7.344,11.628-10.404c-4.284-4.284-7.956-9.792-11.016-14.688
			c-4.284-6.12-7.345-12.852-11.017-19.584c-5.508,4.284-11.628,8.568-17.748,12.852l0,0c0.612-0.612,1.225-0.612,1.225,0
			c4.896,4.896,9.18,9.792,14.075,14.688c4.284,4.284,9.181,8.568,12.24,14.076C120.948,126.875,120.948,128.1,120.336,129.324
			L120.336,129.324z"/>
		<path d="M106.26,144.624L106.26,144.624c-9.18-12.24-17.136-24.48-25.704-36.72c-0.611-0.612,0-1.224,0-1.836
			c-3.672,2.448-7.344,5.508-11.628,7.956c5.508,7.344,10.404,14.076,15.912,21.42c4.896,6.12,9.792,11.628,14.076,17.748
			C101.976,150.132,103.812,147.072,106.26,144.624z"/>
		<path d="M97.08,155.64c-12.24-9.792-22.032-26.316-30.601-39.78c-4.283,3.06-8.567,6.12-12.852,9.792
			c11.016,14.688,23.256,29.376,33.048,44.676C90.348,164.82,94.02,160.536,97.08,155.64z"/>
		<path d="M58.523,187.463c8.568-3.672,17.137-7.956,25.704-12.852c-12.239-14.688-22.031-31.212-32.436-47.124
			c-4.284,3.672-9.18,7.344-12.853,11.628c10.404,12.24,21.421,24.48,31.213,37.943c1.224,1.836-1.837,4.284-3.061,2.448
			c-11.016-11.627-20.196-25.092-29.988-38.556c-2.447,2.448-5.508,5.508-7.956,7.956C37.104,163.596,47.508,175.224,58.523,187.463
			L58.523,187.463z"/>
		<path d="M64.032,38.748c-0.612-0.612-1.225-1.224-1.225-2.448c0-4.896,0.612-9.18,1.225-14.076
			c-4.284,3.672-8.568,6.732-12.853,9.792c-7.956,5.508-15.912,11.016-23.868,16.524c-1.224,1.224-3.06,0-3.672-1.224
			c-1.224-0.612-1.836-1.224-1.836-3.06C21.191,36.3,23.64,28.344,24.864,21c1.224-4.896,1.836-10.404,3.06-15.3
			C21.804,8.76,8.952,33.24,7.116,36.912C-0.84,51.6-5.736,71.184,12.624,78.528C29.76,68.124,46.284,52.824,64.032,38.748z"/>
		<path d="M54.24,189.299c-11.628-9.792-21.42-23.256-28.152-36.72c-2.448,3.06-4.896,6.732-7.344,9.792
			c3.672,5.508,7.956,10.404,12.239,15.301c4.284,4.896,9.792,9.791,14.076,14.688C48.12,191.748,51.18,190.524,54.24,189.299z"/>
		<path d="M12.012,174.612c3.061,4.896,6.12,9.18,9.18,12.852c2.448,3.061,5.509,6.12,7.956,8.568
			c3.673-0.612,7.345-1.224,11.628-2.448c-9.18-7.344-17.747-17.748-23.867-28.152C15.072,168.492,13.848,171.552,12.012,174.612z"
			/>
		<path d="M10.176,179.507c-1.224,3.061-1.836,6.12-3.06,9.181c3.06,5.508,9.18,7.956,15.912,8.567
			C18.132,191.748,13.848,185.627,10.176,179.507z"/>
		<path d="M321.071,219.9c1.225-0.612,2.448-0.612,3.672-1.225c3.673-1.224,4.284-6.12,2.448-8.567
			c-1.224-2.448-2.448-4.896-4.284-7.344c-2.447-3.061-5.508-5.509-7.344-8.568c0-0.612-0.611-1.225-1.224-1.836
			c-0.612-1.225-1.225-2.448-1.225-3.672c0-1.225-1.224-1.836-1.836-1.836c-3.672-1.225-7.344,1.224-11.016,4.283
			c-12.24,5.509-23.256,20.196-22.032,32.437C280.067,243.768,308.832,227.244,321.071,219.9z"/>
	</g>
</g>
<g>
</g>
<g>
</g>
<g>
</g>
<g>
</g>
<g>
</g>
<g>
</g>
<g>
</g>
<g>
</g>
<g>
</g>
<g>
</g>
<g>
</g>
<g>
</g>
<g>
</g>
<g>
</g>
<g>
</g>
</svg>
