<?xml version="1.0" encoding="iso-8859-1"?>
<!-- Generator: Adobe Illustrator 16.0.0, SVG Export Plug-In . SVG Version: 6.00 Build 0)  -->
<!DOCTYPE svg PUBLIC "-//W3C//DTD SVG 1.1//EN" "http://www.w3.org/Graphics/SVG/1.1/DTD/svg11.dtd">
<svg version="1.1" id="Capa_1" xmlns="http://www.w3.org/2000/svg" xmlns:xlink="http://www.w3.org/1999/xlink" x="0px" y="0px"
	 width="348.4px" height="348.4px" viewBox="0 0 348.4 348.4" style="enable-background:new 0 0 348.4 348.4;" xml:space="preserve"
	>
<g>
	<g>
		<g>
			<path d="M343.944,228.57c-4.896-8.566-12.24-11.627-19.584-11.017c-0.612-3.061-3.062-6.119-6.12-7.955
				c-2.448-1.225-5.508-1.225-8.568-1.225c0-3.672,0-6.732-1.836-10.404c-3.672-6.119-9.18-7.344-14.076-6.119
				c29.988-44.063,50.797-119.953-9.18-142.597c-28.764-11.016-50.796-1.224-66.708,17.748V66.39
				c-1.836-4.284-7.344-6.12-11.628-7.956c-4.896-1.836-9.792-2.448-14.688-1.836c-3.061,0-6.12,3.672-3.673,6.12
				c5.509,7.344,11.018,15.3,17.748,22.032l0,0c-13.464,24.48-21.42,55.692-23.867,80.784c0-12.24-0.611-23.868-2.447-35.496
				c-1.836-14.076-7.344-28.764-14.688-42.228c3.06-4.284,4.896-9.792,6.732-14.688c1.836-6.12,3.06-12.24,4.285-18.36
				c0.61-2.448-3.062-4.896-5.508-4.284c-8.568,3.672-15.912,7.956-22.032,14.688c-18.36-18.36-42.84-28.764-70.992-17.748
				c-55.692,21.42-44.676,88.74-24.48,132.804c-6.732-2.446-15.3-0.61-19.584,5.509c-4.284,6.12-4.896,12.239-3.06,18.36
				c-4.896,0-10.404,2.447-13.464,6.73c-2.448,3.672-3.06,7.346-2.448,11.018c-4.284,0.611-8.568,2.447-11.016,6.73
				c-1.836,2.448-2.448,7.346-1.836,11.629C0.612,240.808,0,242.034,0,243.258c6.732,37.332,37.332,58.752,70.992,59.976
				c-2.448,13.465-3.06,26.928-3.06,41.004c0,3.061,5.508,4.285,5.508,0.612c1.836-14.075,3.672-27.541,3.672-41.616
				c4.284,0,8.568-0.611,13.464-1.224c0,0,0,0,0,0.611c0.612,11.629,1.836,23.867,3.672,34.885c0.612,3.672,6.732,3.06,6.732-0.612
				c-0.612-11.628-2.448-23.257-4.896-34.884v-0.612c6.732-1.836,12.852-3.672,18.972-7.345
				c34.884-18.358,54.468-53.854,61.812-92.411c3.06,41.616,25.704,84.456,61.2,100.368c-2.448,14.076,0.61,31.824,6.12,44.063
				c1.224,3.061,6.119,1.225,5.508-1.836c-0.612-7.344-1.836-14.688-3.062-22.031c-0.61-6.119-1.224-11.629-1.836-17.748
				c6.732,2.447,13.465,3.672,21.42,3.672c-1.224,12.24,0.612,24.48,6.732,34.885c1.836,3.673,7.344,1.224,6.731-2.448
				c-3.061-11.017-6.119-21.42-7.345-32.437c8.568-0.61,18.36-2.446,28.152-6.119C324.973,294.667,361.08,258.558,343.944,228.57z
				 M165.24,62.718c-0.612,3.06-1.836,6.12-2.448,9.18c-1.224,3.06-2.448,5.508-3.06,8.568c-2.448-3.672-4.896-6.732-7.956-9.792
				C156.06,67.614,160.344,64.554,165.24,62.718z M132.192,273.859c-41.616,39.168-99.756,28.151-122.4-21.421
				c0.612,0,1.224,0,1.836,0c1.224,0,2.448-1.836,2.448-3.061c0-4.896-4.896-7.955-3.06-12.852c1.224-2.449,3.06-4.285,6.12-5.509
				c2.448,3.672,6.12,6.732,11.016,6.732c3.06,0,4.284-4.896,1.836-6.121c-1.224-0.611-1.836-1.225-3.06-1.836
				c0.612-0.611,0-1.836-0.612-2.447c-0.612-0.613-1.836-1.225-3.06-1.836c-1.224-2.449-1.836-5.508,0-8.567
				c1.836-3.673,6.12-4.896,10.404-4.285c2.448,3.672,6.12,6.121,11.016,7.957c3.672,1.225,5.508-4.285,2.448-6.121
				c-6.12-4.283-12.24-11.627-9.18-20.195s14.076-11.016,18.972-3.061c0,0.612,0.612,0.612,0.612,0.612s0,0,0,0.611
				c1.836,3.672,9.18,1.225,7.344-3.061C48.96,150.844,24.48,75.567,83.232,57.819c55.692-17.136,85.068,48.96,87.516,91.8
				C173.808,192.462,164.628,243.259,132.192,273.859z M199.513,65.778c1.225,0,2.447,0.612,3.061,1.224
				c3.672,1.224,6.731,4.284,10.403,4.896c0,0,0,0,0.611,0c-1.836,2.448-3.672,4.896-4.896,7.344
				C205.632,74.958,202.572,70.062,199.513,65.778z M321.3,276.306c-0.61,1.226-0.61,2.449,0.612,3.062
				c-6.731,6.731-16.523,12.852-25.704,15.912c-22.031,7.344-45.288,3.672-64.872-7.957
				c-42.228-25.703-49.571-73.439-45.899-118.728l0,0c7.345-50.796,33.049-128.521,91.801-110.772
				c69.155,21.42,24.479,108.936-3.672,145.656c-3.062,3.673,3.06,8.568,6.73,4.896c2.448-2.447,4.896-5.508,7.345-8.568
				c6.12-3.061,13.465-4.282,15.301,4.285c1.224,8.566-6.12,13.463-10.404,20.195c-1.836,3.061,1.836,6.731,4.896,4.896
				c0.611-0.612,1.225-1.225,1.836-1.836c0.611,0,1.837-0.612,1.837-1.836l0,0c3.06-3.061,5.508-6.731,7.344-10.403
				c1.836-0.613,3.061-0.613,5.508-0.613c1.836,0.613,3.061,1.836,3.672,3.672c-4.896,2.449-9.18,7.346-11.628,14.076
				c-0.611,2.449,2.448,3.672,4.284,1.836c6.731,0.613,12.853,1.836,17.136,3.672c3.673,4.285,5.509,9.182,5.509,14.688
				C332.316,263.455,326.196,268.962,321.3,276.306z"/>
			<path d="M250.309,87.198c-9.792-1.836-18.973,9.18-15.911,18.36c1.224,3.06,5.508,2.448,5.508-0.612
				c-0.612-4.896,3.672-11.628,9.792-9.792c4.896,1.836,5.508,7.344,5.508,11.628c-0.611,3.06,4.284,3.672,5.508,1.836
				C266.221,100.05,258.876,88.422,250.309,87.198z"/>
			<path d="M97.308,82.915c-10.404,5.508-4.896,18.972,1.836,24.48c2.448,1.836,5.508-0.612,4.284-3.06
				c-1.836-3.06-7.956-11.628-2.448-14.688s9.18,7.344,10.404,10.404c1.224,1.836,4.896,1.224,4.896-1.224
				C115.668,90.258,107.712,77.406,97.308,82.915z"/>
			<path d="M106.488,174.103c-3.672,1.223-2.448,5.508,0.612,6.12c9.792,1.226,22.032,1.226,25.092,12.853
				c1.224,3.672,0.612,8.567-3.06,11.018c-3.06,1.836-7.956,1.836-10.404-1.836c-1.836-3.061-6.12-0.613-5.508,2.447
				c-1.836-0.611-3.672-0.611-5.508,0c-2.448,0.61-3.672,4.896-0.612,6.119c4.896,2.448,11.628,4.284,11.016,11.629
				c-1.224,6.119-9.18,8.567-12.24,2.446c-0.612-2.446-1.836-4.895-3.06-6.729c-1.836-2.449-6.12-1.836-6.12,1.836
				c0.612,4.895,2.448,9.18,1.224,14.074c-1.224,6.731-7.344,10.403-12.852,5.51c-8.568-7.957-1.836-20.809,1.836-28.766
				c1.224-2.447-1.836-4.283-3.672-1.836c-4.896,7.346-10.404,15.301-9.18,24.479c0.612,6.732,4.896,12.853,11.628,15.301
				c11.628,4.283,18.972-5.508,20.196-15.912c5.508,3.062,14.076,1.224,17.748-4.896c3.06-4.896,2.448-11.016-0.612-15.301
				c7.956,1.225,17.748-4.896,18.36-14.074C143.82,179.611,121.788,169.207,106.488,174.103z"/>
			<path d="M267.444,231.63c-3.062-2.447-6.732,0.611-4.896,3.672c1.836,3.672-0.61,11.017-4.896,11.629
				c-3.062,0.611-5.509-2.449-6.12-5.508c0-1.225,0-3.061,0-4.285c0-0.61,0.611-1.225,0.611-1.836
				c1.225-1.836-0.611-4.283-2.447-4.283c-0.612-0.612-0.612-1.225-1.225-1.836c-1.837-2.448-4.896-1.225-4.896,1.224
				c-0.612,5.51,2.448,19.584-6.12,19.584c-4.284,0-7.956-4.283-9.18-7.955c-1.836-6.732,1.224-13.465,3.672-19.584
				c0.611-1.226-0.612-2.447-1.225-2.447c0-1.225,0-2.449,0-4.285c-0.611-3.061-5.509-3.061-6.119,0
				c-1.226,4.285-2.448,17.137-9.792,11.629c-7.956-5.508-1.226-15.912,3.06-20.809c1.225-1.836-0.612-4.896-2.448-3.062
				c-5.508,4.285-10.402,9.181-11.016,16.525c-0.612,6.119,1.836,12.238,7.344,15.299c4.284,2.449,8.568,2.449,11.628,0.611
				c-0.61,3.061-0.61,6.121,0,9.793c1.836,6.119,7.345,11.629,13.465,12.24c6.119,0.61,9.791-1.836,12.853-6.121
				c2.447,2.449,5.508,4.285,9.18,4.285C269.28,255.5,276.624,239.587,267.444,231.63z"/>
			<path d="M187.884,4.579c-1.836-3.06-5.508-4.284-9.18-3.672c-5.508,1.224-7.956,6.12-9.18,11.016
				c-1.836-1.836-3.06-3.672-4.896-4.896C157.284-0.93,145.656,10.698,153,18.654c4.896,5.508,11.016,16.524,18.972,17.136
				c0.612,0,0.612,0.612,1.224,0.612c2.448,1.224,4.896-0.612,6.12-3.06c3.672-2.448,4.896-7.344,6.73-11.016
				C187.884,16.207,191.557,10.086,187.884,4.579z"/>
		</g>
	</g>
</g>
<g>
</g>
<g>
</g>
<g>
</g>
<g>
</g>
<g>
</g>
<g>
</g>
<g>
</g>
<g>
</g>
<g>
</g>
<g>
</g>
<g>
</g>
<g>
</g>
<g>
</g>
<g>
</g>
<g>
</g>
</svg>
