<?xml version="1.0" encoding="iso-8859-1"?>
<!-- Generator: Adobe Illustrator 18.0.0, SVG Export Plug-In . SVG Version: 6.00 Build 0)  -->
<!DOCTYPE svg PUBLIC "-//W3C//DTD SVG 1.1//EN" "http://www.w3.org/Graphics/SVG/1.1/DTD/svg11.dtd">
<svg version="1.1" id="Capa_1" xmlns="http://www.w3.org/2000/svg" xmlns:xlink="http://www.w3.org/1999/xlink" x="0px" y="0px"
	 viewBox="0 0 387.245 387.245" style="enable-background:new 0 0 387.245 387.245;" xml:space="preserve">
<g>
	<path d="M236.835,11.396c-13.017-13.015-33.023-14.882-48.044-5.601c-15.021-9.281-35.027-7.414-48.044,5.601
		c-15.195,15.195-15.195,39.92,0,55.115l40.973,40.973c1.953,1.953,4.512,2.929,7.071,2.929s5.118-0.976,7.071-2.929l40.973-40.973
		C252.03,51.316,252.03,26.592,236.835,11.396z M222.692,52.369l-33.901,33.902l-33.901-33.902c-7.397-7.397-7.397-19.433,0-26.83
		c3.698-3.699,8.557-5.548,13.415-5.548s9.717,1.85,13.415,5.548c3.906,3.905,10.236,3.905,14.143,0
		c7.396-7.397,19.434-7.397,26.83,0C230.089,32.936,230.089,44.972,222.692,52.369z"/>
	<path d="M167.458,127.301h-24.846c-74.393,0-134.915,60.522-134.915,134.915v71.323c0,5.523,4.478,10,10,10h3.89
		c22.872,0,44.608-4.953,64.194-13.841v47.547c0,5.523,4.478,10,10,10s10-4.477,10-10v-58.456
		c43.086-27.762,71.677-76.165,71.677-131.121v-50.368C177.458,131.778,172.98,127.301,167.458,127.301z M157.458,187.669
		c0,72.871-57.667,132.527-129.761,135.735v-61.188c0-63.364,51.551-114.915,114.915-114.915h14.846V187.669z"/>
	<path d="M122.116,166.363c-2.631,0-5.21,1.06-7.07,2.93c-1.86,1.86-2.93,4.44-2.93,7.07s1.069,5.21,2.93,7.07s4.439,2.93,7.07,2.93
		c2.63,0,5.21-1.07,7.069-2.93c1.86-1.86,2.931-4.44,2.931-7.07s-1.07-5.21-2.931-7.07
		C127.326,167.423,124.746,166.363,122.116,166.363z"/>
	<path d="M90.647,205.179c-15.612-5.782-35.598-0.99-43.604,19.352c-13.164,33.442-13.03,80.745-13.019,82.742
		c0.023,3.757,2.149,7.184,5.506,8.873c1.421,0.715,2.96,1.067,4.493,1.067c2.088,0,4.165-0.654,5.912-1.934
		c33.315-24.417,53.804-47.143,60.896-67.547C117.922,227.331,106.045,210.883,90.647,205.179z M91.94,241.165
		c-3.278,9.432-12.502,24.342-36.98,44.832c1.233-15.76,4.087-37.359,10.692-54.14c2.62-6.654,7.553-8.973,12.344-8.973
		c1.984,0,3.943,0.398,5.704,1.05C85.804,224.713,96.095,229.209,91.94,241.165z"/>
	<path d="M244.633,127.301h-24.846c-5.522,0-10,4.477-10,10v50.368c0,54.956,28.591,103.358,71.677,131.121v58.456
		c0,5.523,4.478,10,10,10s10-4.477,10-10v-47.547c19.586,8.888,41.323,13.841,64.194,13.841h3.89c5.522,0,10-4.477,10-10v-71.323
		C379.548,187.823,319.026,127.301,244.633,127.301z M359.548,323.404c-72.094-3.208-129.761-62.864-129.761-135.735v-40.368h14.846
		c63.364,0,114.915,51.551,114.915,114.915V323.404z"/>
	<path d="M272.206,169.292c-1.87-1.87-4.44-2.93-7.07-2.93c-2.64,0-5.21,1.06-7.07,2.93c-1.87,1.86-2.93,4.44-2.93,7.07
		s1.06,5.21,2.93,7.07c1.86,1.86,4.431,2.93,7.07,2.93c2.63,0,5.2-1.07,7.07-2.93c1.859-1.86,2.93-4.44,2.93-7.07
		S274.065,171.153,272.206,169.292z"/>
	<path d="M296.598,205.179c-15.397,5.704-27.275,22.152-20.184,42.552c7.092,20.404,27.58,43.129,60.896,67.547
		c1.747,1.281,3.823,1.934,5.912,1.934c1.533,0,3.073-0.352,4.493-1.067c3.356-1.688,5.483-5.116,5.506-8.873
		c0.012-1.998,0.145-49.3-13.019-82.742C332.196,204.189,312.211,199.397,296.598,205.179z M321.592,231.856
		c6.605,16.781,9.46,38.38,10.692,54.14c-24.479-20.489-33.701-35.399-36.979-44.831c-4.155-11.956,6.136-16.452,8.24-17.231
		c1.761-0.652,3.72-1.05,5.704-1.05C314.04,222.883,318.974,225.202,321.592,231.856z"/>
</g>
<g>
</g>
<g>
</g>
<g>
</g>
<g>
</g>
<g>
</g>
<g>
</g>
<g>
</g>
<g>
</g>
<g>
</g>
<g>
</g>
<g>
</g>
<g>
</g>
<g>
</g>
<g>
</g>
<g>
</g>
</svg>
