<?xml version="1.0" encoding="iso-8859-1"?>
<!-- Generator: Adobe Illustrator 19.0.0, SVG Export Plug-In . SVG Version: 6.00 Build 0)  -->
<svg version="1.1" id="Layer_1" xmlns="http://www.w3.org/2000/svg" xmlns:xlink="http://www.w3.org/1999/xlink" x="0px" y="0px"
	 viewBox="0 0 512 512" style="enable-background:new 0 0 512 512;" xml:space="preserve">
<g>
	<g>
		<g>
			<path d="M35.874,208.171c-2.85,3.746-2.125,9.097,1.63,11.955l187.017,142.293c1.57,1.331,15.804,13.047,31.121,13.047
				c15.377,0,29.747-11.281,31.13-12.416l187.733-142.933c3.746-2.85,4.471-8.209,1.613-11.955c-2.85-3.746-8.201-4.48-11.955-1.613
				l-20.429,15.548V42.667C443.733,19.541,424.201,0,401.067,0H110.933C87.808,0,68.267,19.541,68.267,42.667v179.422
				l-20.429-15.548C44.092,203.682,38.733,204.416,35.874,208.171z M85.333,42.667c0-13.636,11.964-25.6,25.6-25.6h290.133
				c13.636,0,25.6,11.964,25.6,25.6v192.427L276.241,349.628c-3.038,2.441-12.672,8.772-20.599,8.772
				c-7.697,0-17.109-6.502-20.429-9.276L85.333,235.076V42.667z"/>
			<path d="M256,273.067c2.185,0,4.369-0.836,6.033-2.5l32.367-32.367l15.3,15.3c1.664,1.664,3.849,2.5,6.033,2.5
				c2.185,0,4.369-0.836,6.033-2.5c3.337-3.337,3.337-8.73,0-12.066l-15.3-15.3l15.053-15.061
				c1.502-1.382,36.881-34.355,36.881-66.005c0-32.939-26.795-59.733-59.733-59.733c-16.239,0-31.539,6.554-42.667,17.946
				c-11.127-11.392-26.428-17.946-42.667-17.946c-4.71,0-8.533,3.823-8.533,8.533c0,4.71,3.823,8.533,8.533,8.533
				c14.319,0,27.614,7.142,35.558,19.106c3.157,4.762,11.059,4.762,14.217,0c7.945-11.964,21.239-19.106,35.558-19.106
				c23.526,0,42.667,19.14,42.667,42.667c0,20.053-22.656,45.389-31.633,53.7l-53.7,53.7l-53.948-53.939
				c-8.73-8.047-31.386-33.331-31.386-53.461c0-4.71-3.823-8.533-8.533-8.533s-8.533,3.823-8.533,8.533
				c0,31.65,35.379,64.623,36.634,65.766l59.733,59.733C251.631,272.23,253.815,273.067,256,273.067z"/>
			<path d="M207.3,151.1c1.664,1.664,3.849,2.5,6.033,2.5c2.185,0,4.369-0.836,6.033-2.5c3.337-3.337,3.337-8.73,0-12.066
				l-31.633-31.633V76.8c0-4.71-3.823-8.533-8.533-8.533s-8.533,3.823-8.533,8.533v25.6h-25.6c-4.71,0-8.533,3.823-8.533,8.533
				s3.823,8.533,8.533,8.533h30.6L207.3,151.1z"/>
			<path d="M482.611,137.975l-8.533-5.709c-3.917-2.628-9.216-1.579-11.836,2.338c-2.62,3.917-1.57,9.216,2.347,11.844l8.815,5.888
				c13.679,8.405,21.53,24.422,21.53,43.93v273.067c0,14.353-11.247,25.6-25.6,25.6H42.667c-14.353,0-25.6-11.247-25.6-25.6V196.267
				c0-15.479,6.63-35.046,21.811-44.109l8.533-5.709c3.917-2.628,4.966-7.927,2.347-11.844c-2.628-3.908-7.927-4.975-11.836-2.338
				l-8.158,5.47C11.682,148.506,0,171.477,0,196.267v273.067C0,493.261,18.739,512,42.667,512h426.667
				C493.261,512,512,493.261,512,469.333V196.267C512,170.692,501.188,149.385,482.611,137.975z"/>
			<path d="M156.493,351.693L37.385,445.56c-3.703,2.927-4.335,8.286-1.425,11.989c1.69,2.133,4.19,3.251,6.716,3.251
				c1.843,0,3.712-0.597,5.274-1.826l119.108-93.867c3.703-2.927,4.343-8.286,1.425-11.989
				C165.555,349.432,160.205,348.8,156.493,351.693z"/>
			<path d="M355.14,351.693c-3.703-2.91-9.071-2.27-11.981,1.434c-2.91,3.703-2.27,9.071,1.434,11.981l119.467,93.867
				c1.562,1.229,3.422,1.826,5.274,1.826c2.517,0,5.026-1.118,6.707-3.26c2.918-3.703,2.27-9.071-1.434-11.981L355.14,351.693z"/>
		</g>
	</g>
</g>
<g>
</g>
<g>
</g>
<g>
</g>
<g>
</g>
<g>
</g>
<g>
</g>
<g>
</g>
<g>
</g>
<g>
</g>
<g>
</g>
<g>
</g>
<g>
</g>
<g>
</g>
<g>
</g>
<g>
</g>
</svg>
