<?xml version="1.0" encoding="iso-8859-1"?>
<!-- Generator: Adobe Illustrator 16.0.0, SVG Export Plug-In . SVG Version: 6.00 Build 0)  -->
<!DOCTYPE svg PUBLIC "-//W3C//DTD SVG 1.1//EN" "http://www.w3.org/Graphics/SVG/1.1/DTD/svg11.dtd">
<svg version="1.1" id="Capa_1" xmlns="http://www.w3.org/2000/svg" xmlns:xlink="http://www.w3.org/1999/xlink" x="0px" y="0px"
	 width="576.026px" height="576.027px" viewBox="0 0 576.026 576.027" style="enable-background:new 0 0 576.026 576.027;"
	 xml:space="preserve">
<g>
	<g>
		<path d="M574.729,56.172c0-1.836-0.611-3.366-1.836-3.978c0,0,0-0.306-0.306-0.306c-3.672-4.896-10.71-7.65-15.912-10.71
			c-5.508-3.366-11.322-7.038-16.83-10.404c-2.754-1.53-5.508,0-6.732,2.448c-0.918-0.918-2.447-1.53-3.978-1.53
			c-70.38,0.612-140.76,1.224-211.14,3.06c-69.769,1.836-141.984-4.59-211.14,4.59c-0.918,0-1.53,0.612-2.142,0.918
			c-1.53-1.836-3.978-2.754-6.426-0.918C79.009,53.725,61.873,70.249,45.043,87.079c-14.688,14.382-34.884,30.906-44.37,49.572
			c-2.142,3.978,1.224,8.568,4.59,9.18c11.628,17.442,27.234,31.518,42.84,45.288c19.89,17.442,39.78,35.19,60.282,51.408
			c0.612,0.612,1.53,0.918,2.142,0.918c0.306,0,0.306,0.306,0.306,0.306c8.874,5.508,17.442,11.322,26.316,16.83
			c7.65,4.896,16.218,12.24,25.092,14.076c1.53,0.306,2.754,0,3.672-0.612c34.884,6.732,72.828,6.12,107.712,3.06
			c0.918,0.306,1.529,0.612,2.447,0.612c0.612,0,0.918,0,1.225,0c-2.448,42.839-2.143,85.68-3.061,128.52
			c-0.611,37.332-5.508,76.5,2.754,113.22c0.612,2.448,2.448,3.672,4.591,3.979c0,0,0,0.306,0.306,0.306
			c4.59,4.896,9.486,9.486,14.688,13.77c4.283,3.366,8.874,8.874,14.688,7.038c0.918-0.306,1.836-0.918,2.143-1.836
			c6.426,3.979,13.77,3.061,20.808,3.061c8.262-0.307,16.83-0.307,25.092-1.836c2.754-0.612,3.672-2.448,3.672-4.591
			c0.918-0.918,1.225-2.142,0.918-3.06c1.53-0.306,3.061-1.53,3.061-3.672c3.672-67.626-0.918-140.76-12.853-209.61
			c0-0.611,0-1.529-0.306-2.142c-2.142-11.935-4.284-23.868-7.038-35.496c0.306-0.306,0.306-0.612,0.306-0.612
			c72.828,2.448,148.41-6.732,220.626-12.852c0.307,0,0.612,0,0.612-0.306c2.754,1.53,7.038-0.306,7.344-3.978
			C577.177,197.544,573.505,127.165,574.729,56.172z M539.845,42.708c3.672,2.754,7.038,5.508,10.71,8.262
			c4.284,3.366,7.956,7.344,12.853,9.792c-0.307,1.836-0.307,3.978-0.612,5.814c-1.836-1.53-3.672-3.06-5.814-4.896
			c-5.201-4.284-10.403-8.568-15.605-12.546c-0.612-0.306-0.918-0.612-1.53-0.612C539.845,46.687,539.845,44.851,539.845,42.708z
			 M539.845,55.867c3.979,4.284,7.956,8.568,12.24,12.852c3.366,3.366,6.426,6.732,10.098,9.486
			c-0.306,5.202-0.918,10.098-1.224,15.3c-2.142-1.53-3.979-3.06-6.12-4.896c-4.896-4.284-9.486-8.874-13.464-13.771
			c-0.306-0.612-0.918-0.612-1.53-0.612C539.845,67.801,539.845,61.681,539.845,55.867z M540.763,155.623
			c5.202,6.732,11.322,12.852,18.054,18.054c0,7.038,0.307,14.076,0.612,21.114c-2.754-3.06-5.813-5.814-8.262-8.874
			c-3.672-3.978-7.038-8.262-10.404-12.24C540.763,167.25,540.763,161.437,540.763,155.623z M540.457,124.104
			c5.202,7.344,11.016,14.994,18.054,20.502c0,6.426-0.306,12.852,0,19.278c-6.12-6.12-12.24-12.24-17.748-18.972
			C540.763,137.875,540.457,130.836,540.457,124.104z M558.511,138.792c-2.448-2.142-4.896-4.284-7.038-6.426
			c-3.672-3.672-7.344-7.344-10.71-11.322c0,0-0.306,0-0.306-0.306c0-6.12-0.307-12.24-0.307-18.054
			c2.143,2.448,4.591,4.59,6.732,7.038c3.978,3.978,7.65,8.262,12.24,11.934C559.123,127.165,558.816,132.979,558.511,138.792z
			 M551.473,105.133c-3.672-3.672-7.649-7.344-11.321-11.016c0-4.59,0-9.486-0.307-14.076c5.814,7.038,12.853,14.688,20.502,20.196
			c-0.306,4.284-0.611,8.874-0.611,13.158C556.98,110.641,554.227,107.887,551.473,105.133z M540.457,182.551
			c1.836,2.142,3.366,4.59,5.202,6.732c4.283,5.202,8.567,11.322,14.382,15.3c0.611,7.956,1.224,15.912,1.836,23.562
			c-3.979-4.896-8.874-8.874-13.158-13.77c-3.366-3.978-6.426-8.262-9.18-12.546C539.845,195.403,540.15,188.977,540.457,182.551z
			 M527.604,43.933c-0.306,2.448-0.306,5.202-0.611,7.65c-2.143-2.754-4.59-5.202-7.038-7.65
			C522.709,43.933,525.157,43.933,527.604,43.933z M116.647,236.101c-0.306-0.306-0.306-0.612-0.612-0.918
			c-33.354-32.436-71.298-60.588-103.122-94.248c0.918-1.224,2.142-2.142,3.06-3.366c3.366,2.448,6.732,5.202,10.404,7.65
			c0.612,0.306,1.53-0.612,0.918-1.224c-3.366-2.754-6.732-4.896-10.098-7.65c1.53-1.53,3.06-3.06,4.59-4.896
			c3.366,2.142,7.038,4.59,10.71,6.426c0.918,0.306,1.53-0.918,0.612-1.224c-3.366-2.142-7.038-4.284-10.71-6.12
			c1.53-1.836,3.366-3.366,4.896-5.202c3.978,2.754,8.262,5.508,12.546,7.956c0.612,0.306,1.53-0.612,0.918-1.224
			c-3.672-3.06-7.956-5.508-11.934-7.956c2.142-2.142,4.284-4.59,6.732-6.732c3.978,2.754,8.262,5.508,12.546,7.956
			c0.918,0.612,1.836-0.918,0.918-1.53c-3.978-2.448-8.262-5.202-12.24-7.65c1.836-1.836,3.366-3.672,5.202-5.202
			c4.59,3.978,9.18,7.65,14.382,10.71c0.918,0.612,1.53-0.612,0.612-1.224c-4.59-3.366-9.18-7.038-13.77-10.71
			c1.224-1.224,2.448-2.142,3.366-3.366c4.59,3.978,9.18,7.956,14.382,11.322c0.918,0.612,1.836-0.918,0.918-1.53
			c-4.59-3.672-9.18-7.344-13.77-11.016c1.53-1.53,3.06-3.06,4.896-4.896c5.508,4.896,11.322,9.486,17.748,13.158
			c1.224,0.612,2.142-0.918,0.918-1.836c-5.814-4.284-11.628-8.568-17.136-12.852c1.836-1.836,3.672-3.672,5.814-5.508
			c5.202,4.284,10.404,8.568,15.606,12.852c1.224,0.918,2.754-0.612,1.53-1.53c-5.202-4.284-10.404-8.568-15.606-12.852
			c1.53-1.53,3.06-3.06,4.59-4.59c5.202,5.202,10.71,9.792,17.136,13.77c0.918,0.612,1.836-0.918,1.224-1.53
			c-5.508-4.59-11.016-9.18-16.218-14.076c1.836-1.53,3.366-3.366,5.202-5.202c5.814,4.896,11.628,9.792,17.442,14.382
			c0.918,0.918,2.142-0.918,1.224-1.836c-5.508-5.202-11.322-9.792-17.136-14.688c3.366-3.366,6.732-6.732,9.792-10.098
			c6.732,6.426,13.77,12.546,21.114,18.36c0.918,0.918,2.448-0.612,1.53-1.53c-6.732-6.426-13.77-12.546-20.502-18.666
			c1.224-1.224,2.142-2.448,3.366-3.366c0,0,0,0.306,0.306,0.306c7.956,6.426,15.912,13.158,24.48,19.278
			c0.918,0.612,2.142-0.918,1.224-1.53c-7.65-6.732-15.912-12.852-23.868-19.278c-0.306,0-0.306,0-0.612-0.306
			c2.142-2.142,4.284-4.59,6.426-6.732c8.568,7.65,17.136,15.3,26.622,21.726c1.224,0.918,2.142-0.918,0.918-1.836
			c-8.874-6.732-17.748-14.076-26.316-21.42c1.224-1.224,2.448-2.754,3.978-3.978c0,0.306,0.306,0.612,0.306,0.612
			c8.874,6.426,17.442,13.158,26.01,20.196c1.224,0.918,2.754-0.612,1.53-1.53c-8.262-7.344-17.136-14.076-26.316-20.502h-0.306
			c0.306-0.306,0.612-0.918,0.612-1.224c0.306,0,0.612,0.306,1.224,0.306c2.754,0.306,5.202,0.306,7.956,0.612
			c-0.612,0.306-1.224,1.224-0.306,1.53c9.486,7.344,18.972,14.382,29.07,20.502c1.224,0.918,2.448-1.224,1.224-2.142
			c-9.792-6.732-19.584-12.852-29.07-19.89h-0.306c6.426,0.612,12.852,0.918,19.278,1.224c9.18,7.038,18.666,13.464,29.376,18.666
			c1.224,0.612,2.142-1.224,0.918-1.836c-9.18-5.202-18.36-10.404-26.928-16.524c5.202,0.306,10.404,0.306,15.606,0.612
			c7.65,6.426,15.606,11.934,24.786,15.912c1.224,0.612,2.448-1.224,1.224-1.836c-7.344-4.284-14.688-8.568-21.42-13.77
			c1.836,0,3.978,0,5.814,0c7.038,5.202,14.382,10.404,22.338,14.994c1.224,0.612,2.142-1.224,1.224-1.836
			c-6.426-4.284-12.852-8.568-19.278-12.852c1.224,0,2.448,0,3.672,0c7.344,5.508,14.994,11.016,23.256,15.606
			c1.224,0.612,2.448-1.224,1.224-1.836c-6.732-4.59-13.77-9.18-20.502-13.464c1.836,0,3.366,0,5.202,0
			c8.262,5.508,16.524,11.322,25.398,15.912c1.224,0.612,2.754-0.918,1.53-2.142c-6.426-5.202-13.77-9.486-21.114-13.77
			c8.262,0,16.83-0.306,25.092-0.612c6.12,4.59,11.934,9.486,18.36,13.464c0.918,0.612,1.836-0.918,1.224-1.53
			c-4.896-4.284-10.404-8.262-15.912-11.934c2.142,0,4.284,0,6.426-0.306c7.038,4.59,13.77,9.18,20.808,13.158
			c1.53,0.918,2.754-1.224,1.225-2.142c-5.814-3.978-11.628-7.65-17.442-11.016c3.06,0,6.12-0.306,9.18-0.306
			c5.202,4.284,10.404,8.568,15.912,12.546c1.225,0.918,2.448-0.918,1.53-1.836c-4.59-3.672-9.18-7.344-13.771-10.71
			c4.591,0,9.181-0.306,13.771-0.306c5.508,4.896,11.628,10.404,18.054,13.464c0.918,0.612,2.448-0.918,1.225-1.836
			c-5.202-4.284-10.71-7.956-15.912-11.934c5.202-0.306,10.71-0.306,15.912-0.306c6.119,4.896,12.239,9.792,18.666,14.382
			c0.918,0.612,2.448-0.918,1.224-1.836c-5.202-4.59-10.71-8.568-16.218-12.546c3.366,0,6.426,0,9.485,0c0,0,0,0,0,0.306
			c5.509,5.202,11.629,11.322,18.667,14.382c1.224,0.612,2.142-1.224,1.224-2.142c-4.896-4.59-10.71-8.262-15.912-12.546
			c3.366,0,6.732,0,10.098-0.306c5.509,5.202,11.017,10.404,17.137,14.994c1.224,0.918,2.754-0.918,1.529-2.142
			c-4.59-4.59-9.485-8.874-14.688-12.852c3.06,0,6.12,0,9.18,0c4.896,4.59,10.099,9.18,15.912,12.24
			c1.836,0.918,3.061-1.53,1.53-2.448c-4.284-3.366-8.874-6.426-12.853-9.792c0,0,0,0,0.307,0c3.978,0,7.956,0,12.24,0l0,0
			c4.896,4.284,9.485,8.874,14.993,12.546c1.53,0.918,3.061-1.224,1.836-2.448c-3.672-3.672-8.262-7.038-12.546-10.098
			c2.143,0,4.59,0,6.732,0c0,0.306,0,0.612,0.306,0.612c4.896,4.284,8.874,9.486,13.771,13.77c1.224,0.918,3.06-0.306,2.142-1.53
			c-3.06-4.896-7.956-8.874-12.546-12.852c2.448,0,4.896,0,7.344,0c-0.611,0.612-0.611,1.53,0,2.142
			c4.59,4.284,9.486,8.874,15.3,11.628c1.53,0.612,3.366-1.224,1.837-2.448c-4.591-3.978-9.792-7.344-14.383-11.322
			c2.448,0,4.896,0,7.345,0c6.12,5.508,12.546,11.628,19.89,14.994c1.224,0.612,2.448-0.918,1.53-1.836
			c-5.202-4.896-11.017-8.874-16.83-13.158c10.098,0,20.196,0,30.294-0.306c3.672,3.978,7.649,8.262,12.24,11.016
			c1.224,0.918,2.142-0.918,1.529-1.836c-2.754-3.366-5.813-6.426-8.874-9.18c2.143,0,4.284,0,6.427,0
			c4.59,3.672,8.567,7.65,12.852,11.628c1.224,1.224,3.366-0.306,2.448-1.836c-2.754-3.672-6.12-7.038-10.099-9.792
			c1.225,0,2.448,0,3.673,0c0,0,0,0,0,0.306c5.508,4.59,11.016,9.486,17.136,12.852c1.53,0.918,3.06-1.224,1.836-2.448
			c-4.59-3.672-9.792-7.344-14.688-11.016c3.673,0,7.038,0,10.71,0c0,0.306,0,0.918,0.612,1.224
			c5.202,3.672,9.486,7.956,14.076,12.24c0.918,0.918,2.754-0.306,1.836-1.53c-3.366-4.896-8.262-8.568-13.158-11.934
			c3.672,0,7.65,0,11.322,0c6.426,4.896,11.322,11.628,17.748,16.524c1.224,0.918,2.754-0.612,1.53-1.53
			c-4.284-5.202-9.181-10.71-14.994-14.994c2.448,0,4.59,0,7.038,0c5.202,5.814,10.71,11.322,16.523,16.218
			c1.225,0.918,2.754-0.612,1.836-1.836c-4.896-4.896-10.098-9.792-15.3-14.688c3.672,0,7.344,0,11.017,0
			c4.896,5.814,9.485,11.322,14.688,16.83c0.918,0.918,2.142-0.306,1.53-1.53c-4.284-5.508-9.18-10.404-14.076-15.606
			c1.53,0,3.06,0,4.59,0c6.426,8.262,13.158,16.83,21.114,23.256c1.224,1.224,3.06-0.612,1.836-1.836
			c-6.426-7.344-13.464-14.076-19.89-21.42c1.836,0,3.672,0,5.813,0c8.262,7.956,15.606,16.218,23.256,24.48
			c1.225,1.224,3.366-0.306,2.448-1.836c-6.12-8.262-13.464-15.912-21.114-22.95c3.061,0,5.814,0,8.874,0
			c5.814,7.038,11.935,14.382,19.278,19.584c1.224,0.918,2.448-0.918,1.53-2.142c-5.509-6.12-11.322-11.628-17.137-17.748
			c3.672,0,7.345,0,11.017,0c3.672,3.978,7.038,8.568,10.403,12.852c-4.59,55.998-8.262,117.198,3.673,171.666
			c-69.156-1.224-139.23,6.12-208.387,7.956c-33.354,0.918-67.014,1.224-100.368,1.224
			C192.841,237.325,145.105,244.975,116.647,236.101z M320.442,272.821c0,1.836,0,3.978,0,5.814
			c-2.447-1.836-4.896-3.978-7.344-6.12c2.448-0.306,4.896-0.918,7.344-1.836c0.307-0.306,0.918-0.612,1.225-0.612
			C320.749,270.679,320.442,271.597,320.442,272.821z M318.913,260.581c-3.366,0.306-6.426,0.306-9.486,0.612
			c-3.366-4.59-7.956-8.568-12.546-12.24c3.978,0,8.262,0,12.24,0c3.672,3.978,7.649,7.956,11.628,11.934
			C319.831,260.581,319.524,260.274,318.913,260.581z M165.913,265.783c-5.202-6.732-14.076-11.628-21.114-15.912
			c2.142,0,4.284,0,6.426-0.306c0,0.306,0.306,0.306,0.612,0.612c4.59,3.366,9.18,7.038,14.076,10.404
			c2.142,1.53,3.978,3.06,6.12,4.896C169.891,265.783,167.749,265.783,165.913,265.783z M179.989,265.17
			c-3.06-3.366-7.038-5.508-10.71-8.262c-3.672-2.448-7.038-4.896-10.71-7.344c1.53,0,3.06,0,4.284,0c2.142,0,4.284,0,6.426,0
			c6.426,4.896,12.852,10.404,19.584,15.3C185.803,264.865,183.049,265.17,179.989,265.17z M202.633,264.865
			c-6.426-5.508-13.77-10.404-20.808-14.994c3.672,0,7.344,0,11.016,0c-0.306,0.918,0,1.836,0.918,2.448
			c5.508,3.672,11.016,7.65,15.912,11.934c0.306,0.306,0.612,0.612,1.224,0.918C207.835,265.17,205.387,264.865,202.633,264.865z
			 M219.463,265.477c-6.426-6.12-14.076-11.322-21.114-15.606c6.426,0,12.852,0,19.278,0c0,0.306,0.306,0.918,0.612,1.224
			c4.284,4.896,8.874,10.71,14.382,15.606C228.337,266.088,223.747,265.783,219.463,265.477z M244.249,267.312
			c-2.755-3.06-6.12-5.814-9.18-8.874c-3.06-2.754-6.12-5.814-8.874-8.874c5.508,0,11.322,0,16.83-0.306
			c4.284,5.814,8.874,11.016,14.076,15.912c1.224,1.224,2.754,2.448,4.284,3.978C255.57,268.537,250.062,267.619,244.249,267.312z
			 M278.215,269.148c0,0.612,0,1.224,0,2.142c-0.307,0-0.307-0.306-0.612-0.306s-0.612,0-1.224,0
			c-4.59-3.979-10.404-7.344-14.994-11.016c-3.672-3.06-7.038-6.732-10.404-10.098c5.508,0,11.017,0,16.524-0.306
			c2.142,2.142,3.978,4.59,6.12,6.732c2.754,2.754,5.201,5.508,8.262,7.956C279.744,264.559,278.215,266.088,278.215,269.148z
			 M277.908,251.707c-0.918-0.918-1.836-1.836-2.754-2.754c3.672,0,7.345,0,11.322,0c3.672,3.06,7.345,6.12,10.71,9.792
			c0.612,0.612,1.53,1.53,2.143,2.142c-2.754-0.306-5.202-0.612-7.956-1.53c-1.836-0.612-3.366,0.306-4.284,1.53
			C284.028,257.521,280.969,254.46,277.908,251.707z M288.618,513.642c-0.306-2.142-0.306-4.59-0.306-6.731
			c4.896,3.366,11.322,6.426,12.853,7.038c0.918,0.306,1.529-1.225,0.611-1.53c-3.06-1.836-6.119-3.672-9.18-5.508
			c-1.53-0.918-3.06-2.142-4.59-3.366c-0.307-3.06-0.307-6.12-0.307-9.18c4.591,3.672,9.181,7.344,14.383,9.792
			c1.224,0.612,1.836-0.918,0.918-1.53c-5.202-3.672-10.404-7.038-15.606-10.71c0-1.836,0-3.978-0.306-5.813
			c3.978,2.754,7.956,5.508,12.24,7.649c0.918,0.306,1.836-0.612,0.918-1.224c-4.284-3.366-8.874-6.12-13.158-8.874
			c0-2.448,0-5.202-0.307-7.65c3.673,3.061,7.345,6.12,11.629,8.263c1.224,0.611,2.142-1.225,1.224-1.837
			c-4.59-3.06-8.874-6.119-12.853-9.792c0-3.365,0-6.731,0-10.098c3.673,3.061,7.345,6.12,11.322,8.568
			c0.918,0.611,1.836-0.918,0.918-1.53c-4.283-3.06-8.262-6.426-12.24-9.792c0-2.754,0-5.202,0-7.956
			c3.979,3.06,7.65,6.12,11.935,8.874c0.918,0.612,2.142-0.918,1.224-1.836c-4.283-3.672-8.567-7.038-13.158-10.098
			c0-2.143,0-4.284,0-6.12c2.755,2.142,5.509,4.283,8.568,6.12c1.225,0.611,2.448-0.918,1.53-1.837
			c-3.366-2.754-6.732-5.508-10.099-7.956c0-1.529,0-3.365,0-4.896c3.979,3.366,8.263,6.732,12.853,8.874
			c0.918,0.612,2.142-0.612,1.224-1.53c-4.283-3.978-9.18-7.649-13.77-11.016c0-3.061,0.306-6.12,0.306-9.181
			c4.59,3.979,9.792,7.345,15.3,9.793c1.225,0.611,2.143-0.919,0.919-1.837c-5.509-3.978-11.017-7.649-16.219-11.628
			c0-3.672,0.306-7.344,0.306-11.016c4.284,3.366,8.568,6.731,13.158,10.098c0.918,0.612,2.143-0.918,1.225-1.529
			c-4.59-3.673-9.486-7.345-14.383-11.017c0-3.366,0.307-7.038,0.307-10.404c3.979,3.979,8.568,7.65,13.464,10.404
			c1.225,0.612,2.143-0.918,0.918-1.836c-5.202-3.672-9.792-7.344-14.382-11.628c0-4.284,0.306-8.874,0.306-13.158
			c3.673,3.672,7.345,7.344,11.628,10.404c0.918,0.612,2.143-0.918,1.225-1.53c-4.284-3.978-8.874-7.956-12.853-11.934
			c0-1.836,0-3.672,0.307-5.202c3.366,3.366,7.038,6.12,10.71,8.568c0.918,0.611,2.142-0.918,1.224-1.837
			c-3.978-3.672-7.956-7.037-11.934-10.71c0-3.365,0.306-6.426,0.306-9.792c2.142,1.837,4.284,3.673,6.426,5.509
			c1.225,0.918,2.754-1.225,1.53-2.143c-2.448-2.448-5.202-4.59-7.956-6.731c0-2.143,0-4.284,0.306-6.732
			c2.755,2.754,5.202,5.202,8.263,7.344c1.224,0.918,3.06-0.611,1.836-1.836c-3.366-3.06-6.732-6.12-9.792-9.485
			c0-3.366,0-6.732,0.306-10.099c3.979,3.061,8.262,5.509,12.853,7.65c1.224,0.612,1.836-1.53,0.918-1.836
			c-4.896-2.448-9.181-5.202-13.771-8.262c0-3.061,0-5.814,0-8.874c3.366,3.365,7.038,6.731,10.71,9.792
			c0.918,0.611,2.143-0.918,1.225-1.53c-3.673-3.979-7.65-7.65-11.935-11.017c0-2.142,0-3.978,0-6.119
			c3.366,3.365,7.038,6.731,11.322,9.485c0.918,0.612,2.142-0.918,1.224-1.836c-3.978-3.672-8.262-7.344-12.546-11.016
			c0-1.53,0-2.754,0-4.284c3.672,3.366,7.65,6.732,11.628,9.18c0.918,0.612,2.143-0.918,1.225-1.529
			c-4.284-3.673-8.568-7.038-12.853-10.71c0-2.448,0-4.896,0-7.345c3.979,3.366,8.262,6.732,12.853,9.486
			c0.918,0.612,2.142-0.918,1.224-1.53c-4.284-3.978-9.18-7.649-14.076-11.016c0-2.448,0-5.202,0-7.65
			c4.284,3.672,8.568,7.345,13.464,10.099c0.918,0.611,1.53-0.918,0.918-1.53c-4.896-3.366-9.792-7.038-14.382-11.016
			c0-0.612,0-1.224,0-2.142c0.307-0.612,0.307-1.224,0.307-1.836c0-0.918,0-1.836-0.307-3.06c4.59,4.284,9.18,8.568,14.076,12.24
			c0.918,0.612,2.142-0.918,1.224-1.836c-4.896-4.59-10.098-9.18-14.993-13.77c3.06,1.224,6.119,2.448,9.18,3.06
			c4.284,3.978,8.567,7.65,13.158,11.016c0.918,0.612,2.142-0.918,1.224-1.53c-3.672-3.06-7.344-5.814-10.71-8.874
			c1.836,0.306,3.672,0.306,5.508,0.306c3.366,3.06,6.732,6.12,10.71,8.874c-1.224,76.5-0.306,156.06,7.956,231.948
			c-4.896-0.306-10.404,0.612-15.3,0.612c-7.344,0-14.994-0.307-22.338-0.612C289.843,513.336,289.23,513.642,288.618,513.642z
			 M314.017,540.264c-0.918-5.508-6.426-7.956-11.016-10.71c-2.754-1.836-5.814-3.365-8.568-4.896
			c6.12,0.918,11.935,1.53,18.055,1.836c2.142,0,3.978,0.306,6.119,0.306c2.754,3.366,5.814,6.427,9.486,8.874
			C323.197,536.287,318.301,537.205,314.017,540.264z M337.885,534.756c-3.06-2.142-6.426-3.978-9.18-6.426
			c-0.612-0.612-1.225-1.224-1.836-1.836c2.142-0.306,4.284-0.612,6.426-1.53c2.142,0.612,4.59-0.306,5.508-2.448
			c2.448,1.837,4.896,3.673,7.038,5.509s3.672,3.672,5.508,5.508C346.759,533.838,342.475,534.145,337.885,534.756z M336.049,330.96
			c-0.918-0.612-2.142-0.918-2.754-0.612c-0.306-5.813-0.918-11.628-1.53-17.747c3.366,3.672,7.038,7.344,11.322,10.098
			c0.306,4.59,0.918,9.18,1.224,13.77C341.557,334.632,338.803,332.796,336.049,330.96z M345.229,346.26
			c0.612,6.427,1.225,12.853,1.53,19.278c-3.672-2.754-7.038-5.814-10.71-8.262c-0.306-0.307-0.612-0.307-0.918-0.307
			c-0.306-5.813-0.918-11.934-1.224-17.748C337.579,341.67,341.251,344.119,345.229,346.26z M332.071,303.42
			c-0.307-0.306-0.918-0.612-1.225-0.918c-0.306-2.754-0.306-5.202-0.612-7.956c3.061,3.979,6.732,7.65,11.322,9.792
			c0.307,2.448,0.307,5.202,0.612,7.65C338.497,309.541,335.131,306.481,332.071,303.42z M332.377,288.732
			c-0.612-0.918-1.53-1.224-2.448-1.224c-0.306-3.366-0.612-7.038-0.918-10.404c0.612,0.612,0.918,1.224,1.53,1.53
			c2.754,2.754,6.12,6.426,9.792,7.956c0.306,3.366,0.611,7.038,0.918,10.404C337.885,295.159,334.825,292.405,332.377,288.732z
			 M359.61,530.472c-5.508-6.119-12.852-11.016-20.195-14.382c0.306-6.12,0.306-12.239,0.306-18.359
			c2.754,3.06,5.814,6.12,8.874,9.18c3.061,2.754,6.12,6.12,9.792,8.568C358.999,520.375,359.305,525.271,359.61,530.472z
			 M357.774,505.993c-1.836-1.53-3.672-2.754-5.508-4.284c-4.284-3.366-8.262-7.344-12.546-10.71c0-5.813,0-11.628,0-17.748
			c1.836,1.836,3.672,3.366,5.814,5.202c3.06,2.754,6.731,5.813,10.71,7.65C356.856,492.834,357.469,499.567,357.774,505.993z
			 M355.633,478.453c-2.142-1.53-4.59-2.754-6.732-4.284c-3.06-2.448-6.119-4.896-9.18-7.649c0-6.732-0.306-13.158-0.612-19.891
			c4.284,3.979,9.181,7.038,14.383,9.18C354.409,463.153,355.021,470.802,355.633,478.453z M353.491,450.3
			c-4.591-3.365-9.486-6.731-14.076-10.098c-0.307-7.956-0.612-16.218-0.918-24.48c3.978,4.591,8.567,9.486,13.464,13.158
			C352.267,436.224,352.879,443.262,353.491,450.3z M351.349,422.455c-0.611-0.612-1.224-1.224-2.142-1.836
			c-3.979-3.672-7.65-7.65-11.017-11.628c-0.306-5.814-0.611-11.935-0.918-17.748c4.284,4.284,8.263,8.262,12.546,12.24
			C350.431,409.909,350.737,416.334,351.349,422.455z M347.677,376.249c0.612,6.12,0.918,12.546,1.53,18.666
			c-2.754-2.754-5.814-5.508-8.568-8.568c-1.224-1.224-2.754-0.918-3.672-0.306c-0.306-6.732-0.918-13.158-1.224-19.89
			c2.447,2.447,5.201,4.59,7.956,6.731C344.923,374.413,346.146,375.331,347.677,376.249z M346.759,278.329
			c-1.53-2.448-3.366-4.284-5.508-6.426c0-0.306,0-0.306,0-0.612c-2.754-5.508-8.874-9.792-13.158-13.77
			c-3.366-3.06-6.732-6.12-9.792-9.18c5.814,0,11.628,0,17.442,0c0,0.306,0.306,0.612,0.611,0.612
			c5.508,5.814,11.017,11.628,16.524,17.442c2.754,3.06,5.813,6.426,8.874,9.18C356.551,276.493,351.655,277.411,346.759,278.329z
			 M370.015,274.351c-2.754-5.202-7.649-9.486-11.934-13.464c-4.284-4.284-8.568-8.262-12.853-12.546c4.896,0,9.792,0,14.688-0.306
			c3.672,5.814,7.649,11.322,12.24,16.83c2.142,2.448,4.59,5.508,7.037,8.262C376.44,273.739,373.075,274.044,370.015,274.351z
			 M392.047,271.597c-3.366-4.59-8.568-8.262-12.546-12.24c-3.366-3.672-6.426-7.344-9.486-11.322c4.896,0,9.792-0.306,14.688-0.306
			c3.365,5.508,7.344,10.71,11.934,15.3c2.448,2.448,5.202,4.896,7.956,7.038C400.615,270.679,396.331,270.985,392.047,271.597z
			 M415.608,269.148c-3.06-4.896-9.18-7.344-13.464-11.322c-3.672-3.06-6.731-6.426-9.485-10.098c4.59,0,9.18-0.306,13.77-0.306
			c3.979,7.344,8.874,15.3,15.3,21.42C419.281,268.843,417.444,268.843,415.608,269.148z M432.745,267.619
			c-6.12-7.038-12.546-13.158-18.055-20.808c4.896-0.306,9.792-0.306,14.383-0.612c3.672,4.896,7.344,9.792,11.321,14.688
			c1.53,1.836,3.366,3.978,4.896,5.814C441.312,267.006,437.028,267.312,432.745,267.619z M456.919,266.088
			c-3.366-3.672-7.344-7.344-10.71-10.71c-2.754-3.06-5.508-6.426-7.956-9.486c3.366-0.306,6.731-0.306,10.098-0.612
			c5.202,7.038,10.71,14.688,17.442,20.502C462.427,265.783,459.673,265.783,456.919,266.088z M474.973,265.17
			c0-0.306,0-0.306-0.306-0.612c-2.754-5.508-6.732-9.486-11.017-13.77c-2.142-2.142-3.978-3.978-6.119-6.12
			c3.978-0.306,7.956-0.612,11.934-0.918c4.284,3.366,7.956,7.038,11.628,10.71c2.754,3.06,5.508,6.732,8.568,9.792
			C484.765,264.865,479.869,264.865,474.973,265.17z M499.146,264.252c0-0.306,0-0.612,0-0.612
			c-1.529-6.12-7.649-11.322-12.239-15.606c-2.143-1.836-4.284-3.366-6.427-4.896c4.284-0.306,8.263-0.918,12.24-1.224
			c0.612,1.224,1.224,2.142,2.448,3.366c0.306,0.306,0.918,0.306,1.224,0.306c3.061,3.672,6.732,7.038,10.099,10.098
			c2.447,2.448,4.59,5.202,7.344,7.65C508.938,263.947,504.043,263.947,499.146,264.252z M526.687,263.029
			c-2.447-6.12-8.874-10.098-13.464-14.076c-3.06-2.754-6.12-5.508-9.485-8.262c4.896-0.612,9.791-1.224,14.688-1.836
			c3.979,4.59,7.956,8.874,12.24,13.464c2.754,3.06,5.813,7.65,9.792,10.404C535.867,262.723,531.276,263.029,526.687,263.029z
			 M548.719,262.417c0-0.306,0-0.612,0-0.918c-0.918-6.12-8.262-10.71-12.546-14.688c-3.061-3.06-6.426-5.814-9.792-8.874
			c1.836-0.306,3.672-0.306,5.813-0.612c0.307,0,0.307,0,0.612-0.306c1.224,0.918,3.061,0.612,3.366-0.918
			c0.306-1.224,0.306-2.754,0.306-3.978c4.59,5.202,8.874,10.71,13.464,15.912c4.284,4.896,8.568,11.016,14.383,14.076
			C559.123,262.111,553.921,262.111,548.719,262.417z M556.062,243.445c-5.508-5.508-11.016-11.016-16.218-16.524
			c-0.918-0.918-1.836-0.918-2.754-0.612c0.612-4.284,0.918-8.874,1.224-13.158c1.225,1.53,2.448,3.366,3.673,4.896
			c4.283,5.814,9.485,12.546,15.911,16.218c1.53,0.918,3.366,0.306,4.284-0.918c0.612,6.426,1.53,12.852,2.448,18.972
			C562.183,249.259,558.816,246.199,556.062,243.445z"/>
		<path d="M144.187,122.575c-0.612,1.836-1.53,3.672-2.142,5.508c-3.366-3.06-6.426-6.426-10.098-9.18
			c-8.874-7.344-24.174,2.142-17.136,13.158c6.12,9.486,13.464,18.36,20.808,26.928c4.284,4.896,14.382,5.202,18.36,0
			c7.038-8.874,12.24-18.054,15.912-29.07C175.399,113.395,149.389,106.356,144.187,122.575z"/>
		<path d="M226.195,173.371c-7.038-1.53-12.24,0.612-16.83-6.12c-3.366-4.896-0.612-22.338-0.918-28.458
			c-0.612-16.83-0.918-33.966-3.672-50.796c-0.918-4.59-7.038-2.754-7.344,0.918c-1.53,14.076-1.224,28.458-0.918,42.84
			c0.306,13.77-1.53,29.376,0.918,42.84c2.754,14.382,17.136,12.24,28.764,9.18C231.091,182.551,231.397,174.595,226.195,173.371z"
			/>
		<path d="M258.937,87.385c-0.612,0-1.224,0.306-1.53,0.918c-1.224-0.612-3.06-0.612-4.283,0.918
			c-14.994,18.36-21.114,41.31-19.278,64.872c1.224,14.382,7.038,32.436,23.868,32.436c1.224,0,2.142-0.306,2.754-0.918
			c2.142,0,3.978-0.306,6.12-0.918c11.321-4.59,11.321-20.196,11.934-30.294C279.744,141.241,285.253,83.712,258.937,87.385z
			 M266.587,160.825c0.918,7.65-3.061,11.934-11.017,13.464c-22.031-12.852-4.59-61.2,3.366-78.642
			c2.448,3.978,5.202,7.344,6.426,12.24c1.53,6.426,1.225,13.464,1.53,20.196c0.306,6.426,0.306,13.158,0,19.584
			C266.893,152.256,266.893,156.541,266.587,160.825z"/>
		<path d="M327.787,85.548c-0.918-5.813-8.568-3.366-9.181,1.224c-2.754,21.42-2.447,43.758-2.754,65.79
			c-5.508-20.196-11.016-40.698-17.748-60.282c-1.529-3.978-8.567-3.672-7.956,1.224c3.366,30.294,12.24,60.588,22.032,89.352
			c2.448,6.732,13.158,4.284,11.017-3.06v-0.306c0.611-0.612,1.224-1.53,1.224-2.754
			C328.093,147.361,332.683,114.925,327.787,85.548z"/>
		<path d="M379.194,175.207c-4.283-1.53-8.873,0.306-13.157,1.53c-2.448,0.612-4.896,1.53-7.345,2.448
			c0.307-6.426,0.307-12.546,0.307-18.972c7.038,0.918,14.994,0.918,18.972-5.202c1.836-2.754,0-6.732-3.06-7.65
			c-3.366-0.918-6.12,0-9.486,0.918c-2.142,0.612-4.59,0.918-6.732,0.918c-0.306-18.054-1.836-35.802-3.672-53.55
			c3.366,1.224,7.345,1.836,10.71,2.448c3.673,0.918,7.345,2.142,11.322,0.918c4.59-1.53,5.814-8.262,1.53-10.71
			c-3.672-2.142-7.65-1.53-11.935-1.53c-3.978,0-7.956,0-11.934,0.306c-0.306,0-0.612,0.306-0.612,0.306
			c-1.529-3.06-6.12-2.754-6.426,1.224c-2.754,31.212-2.754,63.648-0.306,94.554c0.306,2.754,2.142,4.59,3.978,5.202
			c0.918,0.612,2.143,1.224,3.366,0.918c7.956-1.224,20.196,0.306,26.622-5.202C385.009,181.327,382.867,176.431,379.194,175.207z"
			/>
		<path d="M443.148,121.657c-0.918,1.53-1.836,3.06-2.754,4.59c-2.447-3.06-5.202-6.12-7.956-8.874
			c-5.813-5.814-17.441,0-14.382,8.568c3.672,10.404,9.181,20.196,14.382,29.988c2.448,4.284,7.65,6.426,12.24,5.814
			c5.202-0.918,8.262-3.978,10.098-8.874c2.755-6.426,6.12-12.852,10.099-18.666C474.055,121.044,452.022,107.887,443.148,121.657z"
			/>
		<path d="M99.511,86.161c-6.12-4.284-11.934-8.568-17.136-13.77c-0.918-0.918-2.448,0.612-1.53,1.53
			c5.202,5.508,11.016,10.404,17.748,13.77C99.817,88.303,100.735,86.772,99.511,86.161z"/>
		<path d="M221.605,63.21c-5.814-4.59-12.24-8.262-18.36-12.24c-1.53-0.918-2.754,1.53-1.53,2.448
			c6.12,3.978,12.24,8.568,18.666,11.934C221.911,66.271,223.135,64.128,221.605,63.21z"/>
		<path d="M283.723,59.232c-5.814-4.896-12.546-8.262-18.972-12.24c-1.53-0.918-2.754,1.224-1.225,2.142
			c6.12,3.978,11.935,8.874,18.666,11.934C283.417,61.681,284.946,60.151,283.723,59.232z"/>
		<path d="M394.188,55.254c-3.978-3.366-8.262-6.732-12.546-9.792c-0.918-0.918-2.448,0.918-1.53,1.836
			c3.979,3.366,7.956,6.732,12.547,9.792C393.883,58.009,395.106,56.172,394.188,55.254z"/>
	</g>
</g>
<g>
</g>
<g>
</g>
<g>
</g>
<g>
</g>
<g>
</g>
<g>
</g>
<g>
</g>
<g>
</g>
<g>
</g>
<g>
</g>
<g>
</g>
<g>
</g>
<g>
</g>
<g>
</g>
<g>
</g>
</svg>
