<?xml version="1.0" encoding="iso-8859-1"?>
<!-- Generator: Adobe Illustrator 18.0.0, SVG Export Plug-In . SVG Version: 6.00 Build 0)  -->
<!DOCTYPE svg PUBLIC "-//W3C//DTD SVG 1.1//EN" "http://www.w3.org/Graphics/SVG/1.1/DTD/svg11.dtd">
<svg version="1.1" id="Capa_1" xmlns="http://www.w3.org/2000/svg" xmlns:xlink="http://www.w3.org/1999/xlink" x="0px" y="0px"
	 viewBox="0 0 431.477 431.477" style="enable-background:new 0 0 431.477 431.477;" xml:space="preserve">
<g>
	<path d="M92.338,247.46c-9.213-25.723-30.967-31.029-42.516-28.334c-9.342,2.182-16.541,9.95-20.27,21.875
		c-3.385,10.822-3.547,24.066-0.458,37.295c6.114,26.186,22.849,44.466,39.606,44.466c1.729,0,3.463-0.195,5.181-0.597
		c4.864-1.135,14.114-6.203,18.237-14.967c0.389-0.827,0.564-1.697,0.564-2.554h0.006v-55.162h-0.006
		C92.684,248.81,92.577,248.129,92.338,247.46z M71.155,310.479c-11.225,2.625-25.419-13.693-30.374-34.912
		c-2.609-11.174-2.529-22.178,0.226-30.984c1.394-4.463,4.75-12.186,11.545-13.771c4.973-1.159,20.615,0.069,28.139,19.773v52.555
		C78.139,307.359,73.039,310.039,71.155,310.479z"/>
	<path d="M393.299,217.874c-8.051-1.88-20.134-0.935-31.332,4.51V210.13c0-3.314-2.686-6-6-6H237.319v-21.616c0-3.314-2.686-6-6-6
		H86.69c-3.314,0-6,2.686-6,6v15.758c-13.154-6.829-27.6-8.053-37.099-5.835c-16.118,3.764-29.198,15.646-36.827,33.461
		c-7.358,17.183-8.766,37.972-3.964,58.537c8.985,38.482,37.567,65.635,66.759,65.635c3.52,0,10.939-1.315,11.131-1.362v10.184
		c0,16.275,13.24,29.517,29.516,29.517h97.596c9.107,0,17.262-4.147,22.681-10.65c4.791,6.457,12.468,10.65,21.107,10.65H335.7
		c14.484,0,26.268-11.784,26.268-26.269v-7.734c2.91,0.639,5.836,0.96,8.756,0.96c25.537,0,50.518-23.66,58.352-57.205
		C437.856,260.547,421.807,224.531,393.299,217.874z M225.319,339.337c-47.213-28.623-48.944-55.512-47.322-66.15
		c1.852-12.129,10.441-21.742,21.377-23.92c9.893-1.971,19.272,2.713,25.945,12.854V339.337z M237.319,339.272v-66.722
		c5.723-8.586,13.697-12.542,22.08-10.875c9.371,1.866,16.736,10.124,18.326,20.548C280.557,300.792,265.586,321.7,237.319,339.272z
		 M207.801,376.407h-97.596c-9.658,0-17.516-7.857-17.516-17.517v-18.615h-0.006c0-0.848-0.173-1.709-0.553-2.528
		c-1.397-3.005-4.965-4.309-7.971-2.913c-2.166,1.007-4.445,1.792-6.773,2.337c-26.115,6.091-54.336-18.785-62.901-55.465
		c-4.225-18.094-3.05-36.235,3.31-51.084c6.088-14.215,16.219-23.627,28.525-26.5c7.365-1.719,23.807-0.564,36.572,9.863
		c2.566,2.096,6.348,1.715,8.443-0.852c0.911-1.115,1.353-2.46,1.352-3.796h0.002v-0.018c0-0.005,0-0.01,0-0.016v-20.79h132.629
		v55.954c-8.238-6.436-18.13-8.994-28.289-6.97c-15.869,3.16-28.285,16.775-30.895,33.88c-2.066,13.536-0.293,48.273,59.184,81.858
		v5.654C225.319,368.55,217.461,376.407,207.801,376.407z M417.389,295.43c-7.279,31.168-31.148,52.33-53.219,47.182
		c-1.945-0.454-3.855-1.113-5.676-1.958c-3.002-1.397-6.572-0.092-7.969,2.913c-0.381,0.819-0.554,1.681-0.554,2.528h-0.005v16.043
		c0,7.868-6.4,14.269-14.268,14.269h-84.111c-7.869,0-14.27-6.4-14.27-14.269v-8.908c52.563-29.818,54.11-60.744,52.27-72.817
		c-2.35-15.397-13.539-27.657-27.846-30.506c-8.722-1.739-17.223,0.262-24.424,5.445V216.13h112.648v17.119h0.002
		c-0.001,1.336,0.44,2.68,1.352,3.795c2.094,2.566,5.875,2.949,8.443,0.852c10.77-8.797,24.611-9.78,30.807-8.336
		C412.635,234.712,424.666,264.262,417.389,295.43z"/>
	<path d="M387.93,240.878c-10.227-2.387-29.488,2.27-37.611,24.947c-0.239,0.669-0.346,1.351-0.346,2.022h-0.006v47.541h0.005
		c0,0.857,0.177,1.727,0.565,2.554c3.678,7.816,11.936,12.34,16.279,13.354c1.539,0.359,3.088,0.533,4.637,0.533
		c14.83,0,29.598-16.008,34.959-38.961c2.695-11.543,2.551-23.113-0.41-32.578C402.698,249.72,396.278,242.827,387.93,240.878z
		 M394.727,290.139c-4.615,19.754-16.983,31.381-25.182,29.471c-1.441-0.337-5.492-2.485-7.578-5.761v-44.9
		c6.294-16.291,19.146-17.339,23.234-16.386c3.984,0.93,7.391,5.052,9.348,11.308C396.846,271.215,396.911,280.789,394.727,290.139z
		"/>
	<path d="M138.012,155.648c0,3.313,2.688,6,6,6c3.314,0,6-2.687,6-6c0-7.044,2.195-10.292,4.973-14.403
		c3.131-4.635,7.027-10.402,7.027-21.12c0-10.719-3.896-16.487-7.027-21.123c-2.777-4.112-4.973-7.36-4.973-14.405
		c0-7.046,2.195-10.294,4.973-14.406c3.131-4.635,7.027-10.404,7.027-21.122c0-3.313-2.686-6-6-6c-3.313,0-6,2.687-6,6
		c0,7.045-2.193,10.293-4.971,14.405c-3.131,4.636-7.029,10.404-7.029,21.124c0,10.719,3.898,16.487,7.029,21.122
		c2.777,4.112,4.971,7.36,4.971,14.405c0,7.043-2.193,10.291-4.971,14.402C141.911,139.162,138.012,144.93,138.012,155.648z"/>
	<path d="M167.994,155.648c0,3.313,2.686,6,6,6c3.314,0,6-2.687,6-6c0-7.044,2.193-10.292,4.973-14.403
		c3.131-4.635,7.027-10.402,7.027-21.12c0-10.719-3.896-16.487-7.027-21.123c-2.779-4.112-4.973-7.36-4.973-14.405
		c0-7.046,2.195-10.294,4.973-14.406c3.131-4.635,7.027-10.404,7.027-21.122c0-3.313-2.686-6-6-6c-3.314,0-6,2.687-6,6
		c0,7.045-2.193,10.293-4.971,14.405c-3.133,4.636-7.029,10.404-7.029,21.124c0,10.719,3.896,16.487,7.029,21.122
		c2.777,4.112,4.971,7.36,4.971,14.405c0,7.043-2.193,10.291-4.971,14.402C171.891,139.162,167.994,144.93,167.994,155.648z"/>
	<path d="M271.963,190.203c0,3.313,2.688,6,6,6c3.314,0,6-2.687,6-6c0-7.044,2.195-10.292,4.973-14.403
		c3.131-4.635,7.027-10.402,7.027-21.119c0-10.718-3.897-16.487-7.027-21.122c-2.777-4.112-4.973-7.36-4.973-14.406
		c0-7.045,2.195-10.293,4.973-14.405c3.131-4.635,7.027-10.404,7.027-21.123c0-3.313-2.686-6-6-6c-3.313,0-6,2.687-6,6
		c0,7.045-2.193,10.293-4.971,14.405c-3.133,4.635-7.029,10.404-7.029,21.123c0,10.719,3.896,16.488,7.029,21.123
		c2.777,4.112,4.971,7.36,4.971,14.405c0,7.043-2.193,10.291-4.971,14.402C275.862,173.718,271.963,179.485,271.963,190.203z"/>
	<path d="M301.946,190.203c0,3.313,2.686,6,6,6c3.313,0,6-2.687,6-6c0-7.044,2.193-10.292,4.971-14.403
		c3.133-4.635,7.029-10.402,7.029-21.119c0-10.718-3.896-16.487-7.029-21.122c-2.777-4.112-4.971-7.36-4.971-14.406
		c0-7.045,2.193-10.293,4.971-14.405c3.133-4.635,7.029-10.404,7.029-21.123c0-3.313-2.688-6-6-6c-3.314,0-6,2.687-6,6
		c0,7.045-2.195,10.293-4.973,14.405c-3.131,4.635-7.027,10.404-7.027,21.123c0,10.719,3.897,16.488,7.027,21.123
		c2.777,4.112,4.973,7.36,4.973,14.405c0,7.043-2.195,10.291-4.973,14.402C305.842,173.718,301.946,179.485,301.946,190.203z"/>
</g>
<g>
</g>
<g>
</g>
<g>
</g>
<g>
</g>
<g>
</g>
<g>
</g>
<g>
</g>
<g>
</g>
<g>
</g>
<g>
</g>
<g>
</g>
<g>
</g>
<g>
</g>
<g>
</g>
<g>
</g>
</svg>
